<svg xmlns="http://www.w3.org/2000/svg" version="1.1" xmlns:xlink="http://www.w3.org/1999/xlink" xmlns:svgjs="http://svgjs.dev/svgjs" width="128" height="128" viewBox="0 0 128 128"><g transform="matrix(0.8046875,0,0,0.8046875,12.612792253521128,12.612792253521128)"><svg viewBox="0 0 142 142" data-background-color="#ff908b" preserveAspectRatio="xMidYMid meet" height="128" width="128" xmlns="http://www.w3.org/2000/svg" xmlns:xlink="http://www.w3.org/1999/xlink"><g id="tight-bounds" transform="matrix(1,0,0,1,-0.15550000000000352,-0.15550000000000352)"><svg viewBox="0 0 142.31066447748242 142.31066447748242" height="142.31066447748242" width="142.31066447748242"><g><svg></svg></g><g><svg viewBox="0 0 142.31066447748242 142.31066447748242" height="142.31066447748242" width="142.31066447748242"><g><path d="M0 71.155c0-39.298 31.857-71.155 71.155-71.155 39.298 0 71.155 31.857 71.156 71.155 0 39.298-31.857 71.155-71.156 71.156-39.298 0-71.155-31.857-71.155-71.156zM71.155 135.173c35.356 0 64.018-28.662 64.018-64.018 0-35.356-28.662-64.018-64.018-64.018-35.356 0-64.018 28.662-64.018 64.018 0 35.356 28.662 64.018 64.018 64.018z" data-fill-palette-color="tertiary" fill="#ffffff" stroke="transparent"></path><ellipse rx="68.30911894919156" ry="68.30911894919156" cx="71.15533223874121" cy="71.15533223874121" fill="#ffffff" stroke="transparent" stroke-width="0" fill-opacity="1" data-fill-palette-color="tertiary"></ellipse></g><g transform="matrix(1,0,0,1,29.989108276746492,31.58299411773161)"><svg viewBox="0 0 82.33244792398943 79.1446762420192" height="79.1446762420192" width="82.33244792398943"><g><svg viewBox="0 0 82.33244792398943 79.1446762420192" height="79.1446762420192" width="82.33244792398943"><g><svg viewBox="0 0 82.33244792398943 79.1446762420192" height="79.1446762420192" width="82.33244792398943"><g id="textblocktransform"><svg viewBox="0 0 82.33244792398943 79.1446762420192" height="79.1446762420192" width="82.33244792398943" id="textblock"><g><svg viewBox="0 0 82.33244792398943 79.1446762420192" height="79.1446762420192" width="82.33244792398943"><g transform="matrix(1,0,0,1,0,0)"><svg width="82.33244792398943" viewBox="1.4 -35.35 37.45 36" height="79.1446762420192" data-palette-color="#ff908b"><path d="M16.85 0.65Q14.9 0.65 11.1 0.25L11.1 0.25Q8.2-0.05 6.6-0.15L6.6-0.15Q5.95-0.2 5.63-0.33 5.3-0.45 4.55-0.9L4.55-0.9Q5.05-1.6 5.28-2.02 5.5-2.45 5.7-3.2L5.7-3.2Q6.25-5.35 8.6-18.03 10.95-30.7 10.95-31.65L10.95-31.65Q10.95-31.9 10.78-32.08 10.6-32.25 10.25-32.25L10.25-32.25Q10-32.25 7.8-31.85L7.8-31.85Q4.35-31.2 3.2-31.2L3.2-31.2Q1.4-31.2 1.4-32.5L1.4-32.5Q1.4-33.05 1.68-33.88 1.95-34.7 2.2-35.15L2.2-35.15Q2.9-34.9 3.68-34.8 4.45-34.7 6.1-34.7L6.1-34.7Q9.4-34.7 14.2-35.05L14.2-35.05Q19.3-35.35 21.25-35.35L21.25-35.35Q30-35.35 34.43-31.68 38.85-28 38.85-20.8L38.85-20.8Q38.85-15.5 36.5-10.58 34.15-5.65 29.2-2.5 24.25 0.65 16.85 0.65L16.85 0.65ZM17.9-2Q22.8-2 26.43-4.67 30.05-7.35 31.98-11.73 33.9-16.1 33.9-21.1L33.9-21.1Q33.9-27.25 30.65-30.13 27.4-33 20.3-33L20.3-33Q18.4-33 17.55-32.8 16.7-32.6 16.43-32.2 16.15-31.8 15.95-30.95L15.95-30.95Q15.05-26.5 11.4-7.5L11.4-7.5Q11.3-7.1 11.08-5.95 10.85-4.8 10.85-4.25L10.85-4.25Q10.85-3.85 11.05-3.63 11.25-3.4 11.75-3.15L11.75-3.15Q12.85-2.65 14.53-2.33 16.2-2 17.9-2L17.9-2Z" opacity="1" transform="matrix(1,0,0,1,0,0)" fill="#ff908b" class="undefined-text-0" data-fill-palette-color="quaternary" id="text-0"></path></svg></g></svg></g></svg></g></svg></g><g></g></svg></g></svg></g></svg></g><defs></defs></svg><rect width="142.31066447748242" height="142.31066447748242" fill="none" stroke="none" visibility="hidden"></rect></g></svg></g></svg>